<?xml version="1.0" encoding="utf-8"?>
<!-- Generator: Adobe Illustrator 24.0.2, SVG Export Plug-In . SVG Version: 6.00 Build 0)  -->
<svg version="1.1" id="svg2" xmlns="http://www.w3.org/2000/svg" xmlns:xlink="http://www.w3.org/1999/xlink" x="0px" y="0px"
	 viewBox="0 0 2496 2500" style="enable-background:new 0 0 2496 2500;" xml:space="preserve">
<style type="text/css">
	.st0{fill:#FFFFFF;}
	.st1{fill:#423232;}
</style>
<circle class="st0" cx="1247.6" cy="1229.9" r="1236.4"/>
<g id="layer1" transform="translate(-76.221 -152.77)">
	<path id="path821" class="st1" d="M1083.6,2638.1c-218.7-44.7-422.4-146.6-581.4-288.2c-410-364-538-936.8-320.5-1447.4
		C235,777,322,650.2,428.8,539.7l94.4-96.9l6.2,569c6.2,545.4,7.5,572.8,33.5,641.1c52.2,137.9,106.8,224.9,202.5,319.3
		c246,244.8,606.3,305.6,913.2,155.3c288.2-141.6,469.6-451,448.5-764.1c-13.7-210-84.5-364-237.3-516.8
		c-115.5-115.5-251-191.3-397.6-222.4c-150.3-31.1-142.9-36-142.9,90.7v109.3l82,14.9c318.1,58.4,529.3,371.5,463.4,687.1
		c-21.1,100.6-68.3,190.1-144.1,272.1c-115.5,124.2-278.3,183.9-419.9,183.9c-234.8,0-429.9-134.2-525.5-330.5
		c0,0-24.8-55.9-32.3-90.7c-47.2-205-17.4-634.9-17.4-634.9l-3.7-629.9l37.3-18.6c19.9-11.2,39.8-18.6,43.5-18.6
		c3.7,0,7.5,289.5,9.9,643.6c0,0-44.7,463.4,11.2,641.1c7.5,26.1,23.6,69.6,23.6,69.6c48.5,99.4,126.7,187.6,228.6,236.1
		c77,36,116.8,53.4,231.1,53.4c74.5,0,140.4-23.6,217.4-58.4c89.5-41,192.6-150.3,231.1-251c104.4-275.8-41-571.5-323-654.7
		c-115.5-33.5-113.1-36-113.1,89.5v109.3l54.7,14.9c198.8,53.4,259.7,320.5,103.1,457.2c-54.7,48.5-104.4,69.6-191.3,69.6
		c-93.2,0-182.6-55.9-228.6-142.9c-27.3-52.2-29.8-100.6-29.8-123c0-207.5-5-582.7-5-582.7l-3.7-642.3l28.6-7.5
		c16.2-3.7,79.5-13.7,141.6-21.1c210-27.3,520.6,42.2,729.3,161.5c284.5,162.8,499.4,442.3,588.9,765.3
		c31.1,110.6,34.8,144.1,34.8,321.8s-3.7,211.2-33.5,320.5c-121.8,439.8-432.4,752.9-875.9,887.1c-93.2,28.6-136.7,33.5-301.9,37.3
		C1227.7,2654.2,1141.9,2650.5,1083.6,2638.1L1083.6,2638.1z"/>
</g>
</svg>
