<svg id="Слой_1" data-name="Слой 1" xmlns="http://www.w3.org/2000/svg" viewBox="0 0 98 98.78"><defs><style>.cls-1{fill:#ee3f02;}.cls-2{fill:#423232;}</style></defs><title>realmen</title><polygon class="cls-1" points="98 60.97 98 98.78 16.8 98.78 16.8 85.85 42.97 85.85 42.97 74.21 67.57 74.21 67.57 60.97 98 60.97"/><path class="cls-2" d="M75.63,42.89a2.84,2.84,0,0,1-3.84,1.39L59.57,38.53A2.85,2.85,0,0,1,58,36.82L56,31,53.1,45.28l9.64.2a3.76,3.76,0,0,1,3.65,3.85l-.52,20A3.78,3.78,0,0,1,62.1,73H62a3.78,3.78,0,0,1-3.69-3.85l.44-16.25-12-.28L44,66.38A4.82,4.82,0,0,1,43.3,68L33,82.79a4.1,4.1,0,0,1-5.76,1,4.05,4.05,0,0,1-.95-5.72l9.76-13.9,6.26-35.45L29.89,40.2a2.78,2.78,0,0,1-.71.48l1.16,1.17-3.4,3.4,5.67,5.67-4.53,4.53L9.94,37.31l4.53-4.53,5.67,5.67L23.54,35l1.9,1.9a2.62,2.62,0,0,1,.61-.85l15.58-14.8a10.71,10.71,0,0,1,8.22-2.36l2.7.52a9.69,9.69,0,0,1,7.53,6.31L63,33.81l11.15,5.24A2.91,2.91,0,0,1,75.63,42.89Z" transform="translate(-2 -1.03)"/><polygon class="cls-2" points="21.54 52.15 20.41 53.29 18.14 51.02 19.27 49.88 12.47 43.08 11.34 44.22 9.07 41.95 10.2 40.81 6.8 37.41 0 44.22 18.14 62.36 24.94 55.55 21.54 52.15"/><circle class="cls-2" cx="51.46" cy="8.46" r="8.46"/></svg>